<svg width="24" height="24" viewBox="0 0 24 24" fill="none" xmlns="http://www.w3.org/2000/svg">
<path d="M 5.324219 2.183594 L 6.855469 2.183594 L 6.855469 6.855469 L 2.183594 6.855469 L 2.183594 5.324219 C 2.183594 4.488281 2.511719 3.691406 3.101562 3.101562 C 3.691406 2.511719 4.488281 2.183594 5.324219 2.183594 Z M 9.664062 2.183594 L 18.675781 2.183594 C 19.507812 2.183594 20.308594 2.511719 20.898438 3.101562 C 21.488281 3.691406 21.816406 4.488281 21.816406 5.324219 L 21.816406 14.335938 L 9.664062 14.335938 Z M 6.855469 9.660156 L 2.183594 9.660156 L 2.183594 14.335938 L 6.855469 14.335938 Z M 18.675781 21.816406 L 17.144531 21.816406 L 17.144531 17.144531 L 21.816406 17.144531 L 21.816406 18.675781 C 21.816406 19.507812 21.488281 20.308594 20.898438 20.898438 C 20.308594 21.488281 19.507812 21.816406 18.675781 21.816406 Z M 14.335938 17.144531 L 9.664062 17.144531 L 9.664062 21.816406 L 14.335938 21.816406 Z M 2.183594 18.675781 L 2.183594 17.144531 L 6.855469 17.144531 L 6.855469 21.816406 L 5.324219 21.816406 C 4.488281 21.816406 3.691406 21.488281 3.101562 20.898438 C 2.511719 20.308594 2.183594 19.507812 2.183594 18.675781 Z M 2.183594 18.675781" fill="#6490F1"/>
</svg>
